<svg width="90" height="16" viewBox="0 0 90 16" fill="none" xmlns="http://www.w3.org/2000/svg">
<path fill-rule="evenodd" clip-rule="evenodd" d="M3 0H0V3V6.5V9.5V16H3V9.5H12V6.5H3V3H12V0H3ZM17 0H14V3V6.5V9.5V13V16H17H26V13H17V9.5H26V6.5H17V3H26V0H17ZM31 0H28L32.25 16H35.25L38 5.64706L40.75 16H43.75L48 0H45L42.25 10.3529L39.5 0H36.5L33.75 10.3529L31 0ZM52 0H49L53.25 16H56.25L59 5.64706L61.75 16H64.75L69 0H66L63.25 10.3529L60.5 0H57.5L54.75 10.3529L52 0ZM70 0H73L75.75 10.3529L78.5 0H81.5L84.25 10.3529L87 0H90L85.75 16H82.75L80 5.64706L77.25 16H74.25L70 0Z" fill="#161413"/>
</svg>
