<svg width="59" height="28" viewBox="0 0 59 28" fill="none" xmlns="http://www.w3.org/2000/svg">
<path fill-rule="evenodd" clip-rule="evenodd" d="M19.2487 0H22.2487L24.9987 10.3529L27.7487 0H30.7487L33.4987 10.3529L36.2487 0H39.2487L34.9987 16H31.9987L29.2487 5.64706L26.4987 16H23.4987L19.2487 0ZM22.5 28C22.5 24.134 25.634 21 29.5 21C33.366 21 36.5 24.134 36.5 28H39.5C39.5 22.4772 35.0228 18 29.5 18C23.9772 18 19.5 22.4772 19.5 28H22.5ZM49.9975 7.93783L48.4975 5.33975L36.7661 17.0204L38.2661 19.6184L48.607 16.8235L41.0161 24.3816L42.5161 26.9797L58.4975 22.6603L56.9975 20.0622L46.6565 22.8571L54.2475 15.299L52.7475 12.701L42.4065 15.4959L49.9975 7.93783ZM0 22.6602L1.5 20.0622L11.8409 22.8571L4.25 15.299L5.75 12.701L16.0909 15.4959L8.5 7.93781L10 5.33974L21.7314 17.0203L20.2314 19.6184L9.8905 16.8235L17.4814 24.3816L15.9814 26.9796L0 22.6602Z" fill="#161413"/>
</svg>
