<svg width="976" height="128" viewBox="0 0 976 128" fill="none" xmlns="http://www.w3.org/2000/svg">
<path d="M24 0H0L34 128H58L80 45.1765L102 128H126L160 0H136L114 82.8235L92 0H68L46 82.8235L24 0Z" fill="#161413"/>
<path opacity="0.92" d="M92 0H68L102 128H126L148 45.1765L170 128H194L228 0H204L182 82.8235L160 0H136L114 82.8235L92 0Z" fill="#161413"/>
<path opacity="0.84" d="M160 0H136L170 128H194L216 45.1765L238 128H262L296 0H272L250 82.8235L228 0H204L182 82.8235L160 0Z" fill="#161413"/>
<path opacity="0.76" d="M228 0H204L238 128H262L284 45.1765L306 128H330L364 0H340L318 82.8235L296 0H272L250 82.8235L228 0Z" fill="#161413"/>
<path opacity="0.68" d="M296 0H272L306 128H330L352 45.1765L374 128H398L432 0H408L386 82.8235L364 0H340L318 82.8235L296 0Z" fill="#161413"/>
<path opacity="0.6" d="M364 0H340L374 128H398L420 45.1765L442 128H466L500 0H476L454 82.8235L432 0H408L386 82.8235L364 0Z" fill="#161413"/>
<path opacity="0.52" d="M432 0H408L442 128H466L488 45.1765L510 128H534L568 0H544L522 82.8235L500 0H476L454 82.8235L432 0Z" fill="#161413"/>
<path opacity="0.44" d="M500 0H476L510 128H534L556 45.1765L578 128H602L636 0H612L590 82.8235L568 0H544L522 82.8235L500 0Z" fill="#161413"/>
<path opacity="0.36" d="M568 0H544L578 128H602L624 45.1765L646 128H670L704 0H680L658 82.8235L636 0H612L590 82.8235L568 0Z" fill="#161413"/>
<path opacity="0.28" d="M636 0H612L646 128H670L692 45.1765L714 128H738L772 0H748L726 82.8235L704 0H680L658 82.8235L636 0Z" fill="#161413"/>
<path opacity="0.2" d="M704 0H680L714 128H738L760 45.1765L782 128H806L840 0H816L794 82.8235L772 0H748L726 82.8235L704 0Z" fill="#161413"/>
<path opacity="0.12" d="M772 0H748L782 128H806L828 45.1765L850 128H874L908 0H884L862 82.8235L840 0H816L794 82.8235L772 0Z" fill="#161413"/>
<path opacity="0.04" d="M840 0H816L850 128H874L896 45.1765L918 128H942L976 0H952L930 82.8235L908 0H884L862 82.8235L840 0Z" fill="#161413"/>
</svg>
